<?xml version="1.0" encoding="UTF-8"?>
<svg version="1.1" xmlns="http://www.w3.org/2000/svg" width="900" height="900">
<path d="M0 0 C297 0 594 0 900 0 C900 297 900 594 900 900 C603 900 306 900 0 900 C0 603 0 306 0 0 Z " fill="#1D1E1D" transform="translate(0,0)"/>
<path d="M0 0 C2.94884239 -0.42900464 5.13590511 -0.53813216 7.72412109 1.07373047 C9.61009676 2.63462831 11.40378666 4.26066634 13.1875 5.9375 C14.52225323 7.1458407 15.85819712 8.35286745 17.1953125 9.55859375 C17.84532227 10.15140137 18.49533203 10.74420898 19.16503906 11.35498047 C21.55692784 13.49927885 24.04685032 15.50315641 26.5625 17.5 C32.21855195 22.07549277 37.48740941 27.0288572 42.7890625 32.00390625 C45.17359485 34.23914733 47.5876206 36.4270028 50.0625 38.5625 C58.73580428 46.06574396 67.07111135 53.92403734 75.07421875 62.13671875 C76.86837689 64.05941282 76.86837689 64.05941282 79 65 C79 65.66 79 66.32 79 67 C79.556875 67.226875 80.11375 67.45375 80.6875 67.6875 C83.66159588 69.37550036 85.72008865 71.46676517 88 74 C88 74.66 88 75.32 88 76 C88.57363281 76.23589844 89.14726562 76.47179687 89.73828125 76.71484375 C92.50740972 78.28832089 94.11309973 80.14803411 96.1875 82.5625 C99.23299514 86.03806506 102.32925359 89.38559114 105.625 92.625 C108.95754265 95.91725284 112.09074057 99.30223267 115.13671875 102.859375 C117.28886777 105.33186486 119.51980719 107.72271357 121.75 110.125 C126.02182446 114.80397263 129.95804323 119.6651404 133.82983398 124.67749023 C136.88207464 128.61750024 140.04863898 132.4220564 143.3125 136.1875 C169.06331919 166.15335843 190.98975362 201.45585449 208.03759766 237.00146484 C209.06717672 239.1394999 210.11729526 241.26679009 211.16796875 243.39453125 C227.59090077 276.97914309 242.11373373 316.02079595 242.16796875 353.8984375 C242.17129715 354.73226959 242.17462555 355.56610168 242.17805481 356.42520142 C242.18309134 358.18499201 242.18546415 359.94479205 242.18530273 361.70458984 C242.18746559 364.33317858 242.20559081 366.96133034 242.22460938 369.58984375 C242.27824353 384.99643715 241.32132679 399.9834198 237.125 414.875 C236.88136719 415.79023437 236.63773438 416.70546875 236.38671875 417.6484375 C233.38931147 428.70623015 229.68805071 439.28778078 224.875 449.6875 C224.39272949 450.73059326 223.91045898 451.77368652 223.41357422 452.84838867 C216.9375619 466.63243781 209.13238346 479.19748017 200.28955078 491.58325195 C197.4415091 495.62267955 195.24096847 499.13695481 194 504 C196.79278271 503.40067735 199.58413773 502.79565145 202.375 502.1875 C203.53708984 501.9390332 203.53708984 501.9390332 204.72265625 501.68554688 C214.16444589 499.61771691 223.01173705 496.82173645 231.8125 492.8125 C232.68342285 492.41667725 233.5543457 492.02085449 234.45166016 491.61303711 C241.69154212 488.25841107 248.38676252 484.48454908 255 480 C255.83772949 479.4419165 255.83772949 479.4419165 256.69238281 478.87255859 C265.3436202 473.08177212 273.08694981 466.63686642 280.55859375 459.39453125 C281.87055883 458.1252317 283.20000777 456.87406679 284.53125 455.625 C303.01333105 437.90245653 311.0602206 416.67686152 315 392 C315.185625 390.96359375 315.37125 389.9271875 315.5625 388.859375 C319.27609585 356.10015442 311.90572294 324.90032637 299 295 C298.66226563 294.21705566 298.32453125 293.43411133 297.9765625 292.62744141 C296.45153215 289.10671969 294.91044989 285.59395273 293.34765625 282.08984375 C292 279 292 279 291 276 C304.71836531 277.92538461 315.84608915 286.08600565 326 295 C326.92554688 295.70640625 327.85109375 296.4128125 328.8046875 297.140625 C329.52914062 297.75421875 330.25359375 298.3678125 331 299 C331 299.66 331 300.32 331 301 C331.598125 301.26425781 332.19625 301.52851563 332.8125 301.80078125 C336.74963564 303.95917525 339.17897114 307.57011599 342 311 C342.43376953 311.51755859 342.86753906 312.03511719 343.31445312 312.56835938 C376.05284649 351.70132201 400.83656196 404.05422092 400.4375 455.6875 C400.43479095 456.51461487 400.43208191 457.34172974 400.42929077 458.19390869 C400.3636409 471.45262798 399.46996693 484.14285937 396 497 C395.80744629 497.721875 395.61489258 498.44375 395.41650391 499.1875 C394.13004968 503.86473375 392.61608541 508.42662048 391 513 C390.78649902 513.62471191 390.57299805 514.24942383 390.35302734 514.89306641 C382.09976885 538.97482963 369.82970716 561.08240143 354 581 C353.29617188 581.89589844 352.59234375 582.79179688 351.8671875 583.71484375 C318.48249832 625.41579062 271.23116985 657.64652301 218 667 C216.33389449 667.04324591 214.66566581 667.05775119 213 667 C213.95597674 658.86224801 215.99527785 650.93446311 217.828125 642.95898438 C223.123613 619.5835582 221.96309835 595.53265314 218 572 C209.65210004 581.66757641 209.65210004 581.66757641 201.5 591.5 C174.60813609 624.55660528 151.21833465 646.88404089 107.4375 653.1875 C106.28314453 653.36474609 105.12878906 653.54199219 103.93945312 653.72460938 C97.24015216 654.70879483 90.77044029 655.25154234 84 655 C84.58956854 650.9784986 85.45724506 647.28724564 86.77734375 643.4453125 C87.12603516 642.41792969 87.47472656 641.39054688 87.83398438 640.33203125 C88.19814453 639.27371094 88.56230469 638.21539063 88.9375 637.125 C94.49827903 620.91020604 99.27079438 603.51074107 91.734375 587.01953125 C86.511134 577.92591573 80.31441763 570.71661553 71.9765625 564.3046875 C68.58066755 561.67532002 65.36107484 558.88378465 62.125 556.0625 C56.17703206 550.92594889 50.05518135 546.08281253 43.78076172 541.35107422 C41.84559771 539.88285409 39.92402905 538.39798811 38.00390625 536.91015625 C30.86458388 531.39028356 23.66632834 526.01782565 16.25 520.875 C8.77041544 515.66976382 1.78287382 510.08220392 -5 504 C-5.66128906 503.41089844 -6.32257813 502.82179688 -7.00390625 502.21484375 C-21.31620546 488.69951711 -31.1857087 470.63462304 -37 452 C-37.20496094 451.3709375 -37.40992188 450.741875 -37.62109375 450.09375 C-41.54896446 437.5656395 -41.56581836 424.71375319 -41.76098633 411.70361328 C-41.77223541 410.97810272 -41.7834845 410.25259216 -41.79507446 409.50509644 C-41.82258702 407.50901034 -41.84066806 405.51280067 -41.8581543 403.51660156 C-41.98970589 400.25520893 -42.38321495 397.20124684 -43 394 C-48.65658772 398.51602235 -53.24327359 403.48109524 -57.734375 409.1484375 C-59.14981486 410.92993939 -60.59367335 412.6896431 -62.078125 414.4140625 C-74.38111166 428.76754693 -84.34033944 445.2420956 -93 462 C-93.35255859 462.67385742 -93.70511719 463.34771484 -94.06835938 464.04199219 C-102.28545138 479.92888395 -107.74382625 497.02338093 -111.9375 514.375 C-112.23660278 515.6120166 -112.23660278 515.6120166 -112.54174805 516.87402344 C-116.72660557 535.19419258 -115.60144617 553.70673374 -112 572 C-111.79503906 573.09957031 -111.59007812 574.19914063 -111.37890625 575.33203125 C-107.36789675 593.9421188 -95.75610856 612.35070701 -84 627 C-83.24589844 627.95777344 -82.49179687 628.91554688 -81.71484375 629.90234375 C-77.63285633 635.00657845 -73.393027 639.75451903 -68.69921875 644.30078125 C-67 646 -67 646 -65 648.5625 C-62.57853703 651.51365799 -59.80488689 653.81374383 -56.90625 656.28515625 C-54.64207593 658.32198498 -52.78943996 660.53952006 -51 663 C-63.17315308 661.30556844 -74.64232658 658.25481964 -85.91015625 653.32421875 C-88.02099995 652.41957145 -90.15610092 651.57004511 -92.30859375 650.76953125 C-103.27135164 646.67500722 -113.31243429 641.14673532 -123.49414062 635.40722656 C-125.62763632 634.20910992 -127.77005476 633.0319029 -129.921875 631.8671875 C-144.47028612 623.85550488 -157.55434672 613.94869359 -170 603 C-171.11955078 602.04673828 -171.11955078 602.04673828 -172.26171875 601.07421875 C-181.12448319 593.49995051 -188.81307183 585.1708198 -196 576 C-197.11375 574.59427734 -197.11375 574.59427734 -198.25 573.16015625 C-211.33563404 556.23516084 -221.71099467 536.81001164 -227 516 C-227.17370117 515.31776367 -227.34740234 514.63552734 -227.52636719 513.93261719 C-236.94663134 476.53104485 -231.94764468 438.89187571 -216 404 C-215.70931641 403.35820801 -215.41863281 402.71641602 -215.11914062 402.05517578 C-203.7817076 377.3718572 -187.51004872 354.46306334 -171 333 C-169.54007442 331.04285339 -168.08178834 329.08448291 -166.625 327.125 C-154.52796162 311.01650848 -141.79360213 295.41496933 -128.54345703 280.24243164 C-124.71762575 275.85473631 -121.01892228 271.37925056 -117.359375 266.8515625 C-115.08917439 264.10777699 -112.75956782 261.43066019 -110.40625 258.75854492 C-102.83721537 250.15077633 -95.82892075 241.20277393 -89 232 C-88.45843262 231.27409668 -87.91686523 230.54819336 -87.35888672 229.80029297 C-67.67527004 203.33526989 -51.87171747 174.8733066 -38 145 C-37.53480957 144.00250732 -37.06961914 143.00501465 -36.59033203 141.97729492 C-34.43854948 137.31457374 -32.4120223 132.72127843 -30.875 127.8125 C-29.80207478 124.46445625 -28.7101905 121.15234288 -27.4375 117.875 C-26.00444916 114.13357538 -24.87018906 110.32843149 -23.74609375 106.484375 C-23.07124406 104.23723153 -22.33300257 102.02821549 -21.5625 99.8125 C-12.59961198 72.9700364 -6.70734408 43.72702624 -4.77050781 15.50415039 C-4.30306253 9.58086068 -2.65759234 5.31518468 0 0 Z " fill="#77F86E" transform="translate(376,113)"/>
<path d="M0 0 C2.8125 -0.25 2.8125 -0.25 6 0 C7.875 2 7.875 2 9 4 C6.69 3.67 4.38 3.34 2 3 C-0.32935324 5.89310465 -0.32935324 5.89310465 0 9.5625 C0 10.696875 0 11.83125 0 13 C-0.66 13.66 -1.32 14.32 -2 15 C-2.28070703 17.71157201 -2.46567766 20.34438996 -2.5625 23.0625 C-2.88006757 30.88006757 -2.88006757 30.88006757 -4 32 C-4.1614768 33.95566349 -4.27815652 35.91507251 -4.375 37.875 C-4.74700305 43.35904497 -5.73436176 48.19787253 -7.30859375 53.4453125 C-8.15273885 56.5643571 -8.47200992 59.59452115 -8.75390625 62.8046875 C-9.10437821 65.93111992 -9.81024107 68.94491982 -10.53125 72.00390625 C-10.89571741 73.55592997 -11.20840014 75.12015076 -11.5 76.6875 C-12.11708865 79.54153502 -13.05948789 82.23724567 -14 85 C-14.15726562 85.63679688 -14.31453125 86.27359375 -14.4765625 86.9296875 C-15.00633029 89.0250377 -15.64594997 91.02821524 -16.375 93.0625 C-16.60960937 93.73410156 -16.84421875 94.40570313 -17.0859375 95.09765625 C-18.0968068 97.20147398 -19.32621231 98.39786515 -21 100 C-20.57052582 98.2785926 -20.14077774 96.55725353 -19.7109375 94.8359375 C-19.43604492 93.73475586 -19.16115234 92.63357422 -18.87792969 91.49902344 C-18.31523649 89.25638748 -17.74854187 87.01474945 -17.17675781 84.77441406 C-11.34809654 61.92192319 -6.27199458 38.79374737 -4.71948242 15.19897461 C-4.28409879 9.39966457 -2.60233083 5.20466165 0 0 Z " fill="#8ACB53" transform="translate(376,113)"/>
<path d="M0 0 C1.65 0 3.3 0 5 0 C5 0.66 5 1.32 5 2 C7.97 2.495 7.97 2.495 11 3 C11.33 3.99 11.66 4.98 12 6 C13.423125 6.185625 13.423125 6.185625 14.875 6.375 C18 7 18 7 20 9 C22.57061311 9.64767793 22.57061311 9.64767793 25 10 C25 10.66 25 11.32 25 12 C25.56203125 12.13277344 26.1240625 12.26554688 26.703125 12.40234375 C29.09366153 13.02437111 31.41035775 13.77115041 33.75 14.5625 C34.54921875 14.83191406 35.3484375 15.10132813 36.171875 15.37890625 C36.77515625 15.58386719 37.3784375 15.78882813 38 16 C38 16.66 38 17.32 38 18 C38.804375 18.0825 39.60875 18.165 40.4375 18.25 C44.22648177 19.04768037 47.27354182 20.40133836 50.76953125 22.01171875 C56.25113051 24.44051842 61.02700313 25.24379579 67 25 C64.69006367 21.81573898 64.69006367 21.81573898 62 19 C59.28694223 18.49620971 59.28694223 18.49620971 57 19 C57.66 17.68 58.32 16.36 59 15 C63.04828446 16.65256057 65.97469939 19.49798593 69.125 22.4375 C69.66253906 22.92798828 70.20007813 23.41847656 70.75390625 23.92382812 C73.18872383 26.17345384 75.15245155 28.22867732 77 31 C64.82684692 29.30556844 53.35767342 26.25481964 42.08984375 21.32421875 C39.97900005 20.41957145 37.84389908 19.57004511 35.69140625 18.76953125 C8.68149038 8.68149038 8.68149038 8.68149038 0 0 Z " fill="#65D689" transform="translate(248,745)"/>
<path d="M0 0 C0.99 0.495 0.99 0.495 2 1 C-2.55108804 12.02374658 -16.63779402 19.35373655 -27.0078125 23.87548828 C-39.55720138 29.04972538 -52.13590202 32.25437077 -65.5625 34.1875 C-66.71685547 34.36474609 -67.87121094 34.54199219 -69.06054688 34.72460938 C-75.75984784 35.70879483 -82.22955971 36.25154234 -89 36 C-88.25 30.25 -88.25 30.25 -86 28 C-85.67 29.65 -85.34 31.3 -85 33 C-72.85917878 32.46582998 -72.85917878 32.46582998 -61 30 C-59.41445313 29.78150391 -59.41445313 29.78150391 -57.796875 29.55859375 C-53.71931353 28.95870559 -49.80386484 28.07064755 -45.8125 27.0625 C-45.11447266 26.89298828 -44.41644531 26.72347656 -43.69726562 26.54882812 C-40.22258919 25.6793325 -37.17681966 24.62821053 -34 23 C-30.75 22.875 -30.75 22.875 -28 23 C-28 22.34 -28 21.68 -28 21 C-26.96875 20.5875 -25.9375 20.175 -24.875 19.75 C-22.24490698 18.63420296 -20.23039229 17.48692819 -17.8125 15.875 C-15 14 -15 14 -12.6875 13.4375 C-12.130625 13.293125 -11.57375 13.14875 -11 13 C-10.67 12.01 -10.34 11.02 -10 10 C-9.34 10 -8.68 10 -8 10 C-8 9.34 -8 8.68 -8 8 C-7.38125 7.938125 -6.7625 7.87625 -6.125 7.8125 C-3.7409707 7.18447843 -3.7409707 7.18447843 -2.875 4.5625 C-2.58625 3.716875 -2.2975 2.87125 -2 2 C-1.34 1.34 -0.68 0.68 0 0 Z " fill="#68DB8C" transform="translate(549,732)"/>
<path d="M0 0 C0.99 0.33 1.98 0.66 3 1 C-18.63184587 20.30172742 -42.23686265 35.69963756 -69 46.875 C-69.68175293 47.16133301 -70.36350586 47.44766602 -71.06591797 47.74267578 C-75.64341988 49.60434995 -80.18353754 50.89264368 -85 52 C-85 51.34 -85 50.68 -85 50 C-80.29051371 47.79555961 -75.94270535 46.43895604 -70.8203125 45.52734375 C-70.21960938 45.35332031 -69.61890625 45.17929687 -69 45 C-68.67 44.34 -68.34 43.68 -68 43 C-66.68 43 -65.36 43 -64 43 C-64 42.34 -64 41.68 -64 41 C-62.35 41 -60.7 41 -59 41 C-59 40.34 -59 39.68 -59 39 C-58.0925 38.731875 -57.185 38.46375 -56.25 38.1875 C-53.22529089 37.08231782 -51.50164226 35.9367553 -49 34 C-47.34561387 33.30341637 -45.67745682 32.63903117 -44 32 C-42.948125 31.46375 -41.89625 30.9275 -40.8125 30.375 C-38 29 -38 29 -36 29 C-36 28.34 -36 27.68 -36 27 C-35.01 27 -34.02 27 -33 27 C-33 26.34 -33 25.68 -33 25 C-32.195625 24.566875 -31.39125 24.13375 -30.5625 23.6875 C-27.75717669 22.23212941 -27.75717669 22.23212941 -27.1875 19.3125 C-27.0946875 18.1678125 -27.0946875 18.1678125 -27 17 C-26.4225 17.185625 -25.845 17.37125 -25.25 17.5625 C-22.79307475 18.04023546 -21.35602466 17.75729364 -19 17 C-19 16.34 -19 15.68 -19 15 C-17.01399663 13.6459068 -15.01182457 12.31542376 -13 11 C-11.65849529 9.67488843 -10.32584988 8.34077502 -9 7 C-7.50349397 5.70060742 -5.98229947 4.4290901 -4.4375 3.1875 C-3.67308594 2.56230469 -2.90867187 1.93710937 -2.12109375 1.29296875 C-1.42113281 0.86628906 -0.72117187 0.43960938 0 0 Z " fill="#68D789" transform="translate(701,722)"/>
<path d="M0 0 C11.12938925 8.01316026 21.28413396 17.25277652 31.33984375 26.5546875 C33.51221246 28.55160793 35.70539163 30.50828734 37.9375 32.4375 C46.63916215 39.9994434 55.02889815 47.88071872 63.07421875 56.13671875 C64.86837689 58.05941282 64.86837689 58.05941282 67 59 C67 59.66 67 60.32 67 61 C64.125 60.8125 64.125 60.8125 61 60 C60.27095914 58.35965807 59.61344757 56.68698082 59 55 C57.5579819 53.58892999 57.5579819 53.58892999 55.875 52.3125 C54.92625 51.549375 53.9775 50.78625 53 50 C53 49.34 53 48.68 53 48 C52.34 48 51.68 48 51 48 C51 47.34 51 46.68 51 46 C50.13375 45.9071875 50.13375 45.9071875 49.25 45.8125 C46.11623724 44.68086345 45.05152607 42.59457708 43 40 C41.00628175 38.65729179 39.0065438 37.32346506 37 36 C35.96352976 34.69481525 34.95577057 33.36538653 34 32 C33.01 31.34 32.02 30.68 31 30 C29.8125 27.875 29.8125 27.875 29 26 C28.34 26 27.68 26 27 26 C27 25.34 27 24.68 27 24 C26.278125 23.773125 25.55625 23.54625 24.8125 23.3125 C21.42299697 21.73073192 19.57535903 19.7009863 17 17 C15.90556991 16.09229732 14.80135268 15.19626105 13.6875 14.3125 C12.3571875 13.1678125 12.3571875 13.1678125 11 12 C11 11.34 11 10.68 11 10 C10.2575 9.9175 9.515 9.835 8.75 9.75 C5.47638903 8.85719701 4.28034682 7.43761211 2 5 C1.34 5 0.68 5 0 5 C0 3.35 0 1.7 0 0 Z " fill="#97E155" transform="translate(388,119)"/>
<path d="M0 0 C2 3 2 3 2.5 6.625 C2.665 7.73875 2.83 8.8525 3 10 C3.66 10.33 4.32 10.66 5 11 C5.0749604 17.00990162 5.12897975 23.01952253 5.16479492 29.02978516 C5.17974813 31.06824493 5.20011811 33.10667329 5.22631836 35.14501953 C5.60326407 65.2563297 5.60326407 65.2563297 -1 73 C-0.51366951 68.13669512 0.10481314 63.39013927 1.0234375 58.58984375 C2.21795028 51.48265601 2.30140728 44.50538764 2.25 37.3125 C2.24613281 35.99773682 2.24226562 34.68297363 2.23828125 33.32836914 C2.16285115 24.82938719 1.68636391 16.55615715 0.4375 8.15234375 C0.05250428 5.37831212 -0.08450312 2.79388436 0 0 Z " fill="#6ADE88" transform="translate(595,686)"/>
<path d="M0 0 C4.1795941 4.02334759 7.88750426 8.32703919 11.5625 12.8125 C12.16658691 13.54863525 12.77067383 14.28477051 13.39306641 15.04321289 C17.65130102 20.26781196 21.80919642 25.56185768 25.875 30.9375 C26.65145874 31.95710815 26.65145874 31.95710815 27.44360352 32.99731445 C31 37.75645727 31 37.75645727 31 40 C30.34 40 29.68 40 29 40 C26.93988917 37.23954244 25.06567259 34.37799156 23.16796875 31.50390625 C21.21254719 28.79797167 21.21254719 28.79797167 18.23828125 28.15234375 C17.49964844 28.10207031 16.76101563 28.05179687 16 28 C15.87625 26.9275 15.7525 25.855 15.625 24.75 C14.95629193 20.58345047 14.95629193 20.58345047 13 17 C11.6846659 16.29848848 10.34882408 15.63474075 9 15 C5.58142303 12.09938923 3.846535 9.06237701 2 5 C1.01 5.33 0.02 5.66 -1 6 C-0.67 4.02 -0.34 2.04 0 0 Z " fill="#8FE75B" transform="translate(506,234)"/>
<path d="M0 0 C2 1 4 2 6 3 C6 3.99 6 4.98 6 6 C6.639375 6.12375 7.27875 6.2475 7.9375 6.375 C8.618125 6.58125 9.29875 6.7875 10 7 C10.33 7.66 10.66 8.32 11 9 C11.78375 9.309375 12.5675 9.61875 13.375 9.9375 C15.97587837 10.99023648 17.27627805 11.822667 19 14 C19 14.66 19 15.32 19 16 C19.556875 16.103125 20.11375 16.20625 20.6875 16.3125 C24.55585452 17.46255134 27.66468754 19.77645836 31 22 C31 22.66 31 23.32 31 24 C32.32 24 33.64 24 35 24 C35 24.66 35 25.32 35 26 C36.32 26 37.64 26 39 26 C40.75 28 40.75 28 42 30 C37.14635834 30 34.56315368 28.22125241 30.625 25.6875 C29.92181641 25.24108154 29.21863281 24.79466309 28.49414062 24.3347168 C21.29316906 19.68045002 14.59172962 14.47229807 8 9 C7.12601563 8.28070312 6.25203125 7.56140625 5.3515625 6.8203125 C1.3431313 3.43072681 1.3431313 3.43072681 0 2 C0 1.34 0 0.68 0 0 Z " fill="#6BDF8C" transform="translate(205,713)"/>
<path d="M0 0 C2.8125 -0.25 2.8125 -0.25 6 0 C7.875 2 7.875 2 9 4 C6.69 3.67 4.38 3.34 2 3 C-0.32935324 5.89310465 -0.32935324 5.89310465 0 9.5625 C0 10.696875 0 11.83125 0 13 C-0.66 13.66 -1.32 14.32 -2 15 C-2.28070703 17.71157201 -2.46567766 20.34438996 -2.5625 23.0625 C-2.88006757 30.88006757 -2.88006757 30.88006757 -4 32 C-4.23481693 34.18292774 -4.41363323 36.37203174 -4.5625 38.5625 C-4.64628906 39.76003906 -4.73007812 40.95757812 -4.81640625 42.19140625 C-4.87699219 43.11824219 -4.93757813 44.04507813 -5 45 C-5.33 45 -5.66 45 -6 45 C-6.22401433 36.08920782 -6.01111259 27.31403011 -5.1875 18.4375 C-5.11740723 17.60573242 -5.04731445 16.77396484 -4.97509766 15.91699219 C-4.36624692 9.89167895 -2.70595653 5.41191306 0 0 Z " fill="#97E250" transform="translate(376,113)"/>
<path d="M0 0 C1.89836219 3.44078146 2.38415315 5.50929248 1.37890625 9.41015625 C1.10949219 10.28542969 0.84007812 11.16070313 0.5625 12.0625 C0.29566406 12.94035156 0.02882813 13.81820312 -0.24609375 14.72265625 C-1 17 -1 17 -2 19 C-0.35328588 18.69217504 1.29235576 18.37860766 2.9375 18.0625 C3.85402344 17.88847656 4.77054688 17.71445312 5.71484375 17.53515625 C7.95289844 17.22285012 7.95289844 17.22285012 9 16 C11.01311449 15.60430892 13.03597208 15.25747809 15.0625 14.9375 C16.16722656 14.76089844 17.27195312 14.58429687 18.41015625 14.40234375 C19.26480469 14.26957031 20.11945312 14.13679687 21 14 C21.33 14.66 21.66 15.32 22 16 C18.60641656 16.84268087 15.20980915 17.67247901 11.8125 18.5 C10.85279297 18.73847656 9.89308594 18.97695313 8.90429688 19.22265625 C7.50727539 19.56103516 7.50727539 19.56103516 6.08203125 19.90625 C5.22843018 20.11572266 4.3748291 20.32519531 3.49536133 20.54101562 C0.94053693 21.01093734 -1.40844759 21.08117627 -4 21 C-3.35401634 16.12689995 -2.49028264 11.36868161 -1.4375 6.5625 C-1.03337891 4.70818359 -1.03337891 4.70818359 -0.62109375 2.81640625 C-0.31365234 1.42228516 -0.31365234 1.42228516 0 0 Z " fill="#68DB8F" transform="translate(593,759)"/>
<path d="M0 0 C0.33 0 0.66 0 1 0 C1.35098791 3.77312005 1.30640454 5.53511035 -0.8125 8.75 C-3 11 -3 11 -6 13 C-6.33 13.99 -6.66 14.98 -7 16 C-8.5234375 17.46484375 -8.5234375 17.46484375 -10.375 18.9375 C-12.51162857 20.68328188 -14.02773925 22.03947508 -15.625 24.3125 C-17.49524509 26.60780079 -19.13213016 26.68996002 -22 27 C-18.59575129 22.98473229 -15.13217141 19.05668151 -11.5625 15.1875 C-7.73755929 10.97424044 -4.46005395 6.57184043 -1.3125 1.8359375 C-0.6628125 0.92714844 -0.6628125 0.92714844 0 0 Z " fill="#76E07B" transform="translate(677,548)"/>
<path d="M0 0 C0.66 0.33 1.32 0.66 2 1 C-3.14377027 7.39627224 -8.38775556 13.62607014 -13.9140625 19.6953125 C-16.67366097 22.74430706 -19.34071334 25.86340547 -22 29 C-22.66 28.34 -23.32 27.68 -24 27 C-21.4276723 22.24119376 -19.17201583 19.72400528 -14 18 C-13.690625 17.195625 -13.38125 16.39125 -13.0625 15.5625 C-11.78057087 12.47078856 -10.91128311 12.36466396 -8 11 C-6.93283296 9.20067421 -6.93283296 9.20067421 -6 7 C-2.34285714 1.17142857 -2.34285714 1.17142857 0 0 Z " fill="#6DDE8B" transform="translate(575,704)"/>
<path d="M0 0 C0.99 0 1.98 0 3 0 C1.42242746 4.59248895 -1.03244735 8.27676445 -3.75 12.25 C-4.19738525 12.91386719 -4.64477051 13.57773437 -5.10571289 14.26171875 C-7.01744585 17.09667884 -8.94479763 19.91999657 -10.88671875 22.734375 C-13.83075563 27.03548681 -16.13330678 31.12585658 -18 36 C-19.10914742 32.67255773 -19.03211839 30.35438475 -18 27 C-16.4375 25.3125 -16.4375 25.3125 -15 24 C-15 23.34 -15 22.68 -15 22 C-14.01 22 -13.02 22 -12 22 C-12 21.01 -12 20.02 -12 19 C-11.34 19 -10.68 19 -10 19 C-10 17.68 -10 16.36 -10 15 C-9.01 14.34 -8.02 13.68 -7 13 C-6.67 12.01 -6.34 11.02 -6 10 C-5.34 10 -4.68 10 -4 10 C-3.71125 9.278125 -3.4225 8.55625 -3.125 7.8125 C-2.08333333 5.20833333 -1.04166667 2.60416667 0 0 Z " fill="#74D97D" transform="translate(587,582)"/>
<path d="M0 0 C0.66 0 1.32 0 2 0 C1.87882812 0.62003906 1.75765625 1.24007812 1.6328125 1.87890625 C1.05840332 4.91443784 0.52693683 7.95587171 0 11 C-0.19078125 12.02996094 -0.3815625 13.05992187 -0.578125 14.12109375 C-2.66275838 27.00114996 -2.18426995 39.9919593 -2 53 C-2.33 53 -2.66 53 -3 53 C-4.53455627 40.24458801 -5.60824402 27.80097264 -4 15 C-3.67 14.67 -3.34 14.34 -3 14 C-2.855625 12.96875 -2.71125 11.9375 -2.5625 10.875 C-2.0082083 7.05654608 -1.12585988 3.67780895 0 0 Z " fill="#6FD27F" transform="translate(263,621)"/>
<path d="M0 0 C0.99 0.33 1.98 0.66 3 1 C4.0625 3.3125 4.0625 3.3125 5 7 C5.21011719 7.82628906 5.42023438 8.65257812 5.63671875 9.50390625 C6.96192803 15.70791149 7.05194877 21.30834997 6.3125 27.5625 C6.23483398 28.25327637 6.15716797 28.94405273 6.07714844 29.65576172 C5.66589169 32.59196052 5.29991381 34.62751445 3.41796875 36.96484375 C2.95003906 37.30644531 2.48210937 37.64804687 2 38 C2.15984375 36.88367188 2.3196875 35.76734375 2.484375 34.6171875 C3.87932436 23.37349992 4.66128292 10.54337804 0 0 Z " fill="#68DC89" transform="translate(468,700)"/>
<path d="M0 0 C3.42913483 3.33841698 6.55624939 6.7774775 9.5625 10.5 C10.30628906 11.4178125 11.05007813 12.335625 11.81640625 13.28125 C13.88081954 15.85161073 15.94224475 18.42430635 18 21 C17.38125 21.28875 16.7625 21.5775 16.125 21.875 C13.86674235 22.93720042 13.86674235 22.93720042 12 25 C11.01 23.68 10.02 22.36 9 21 C9.66 21 10.32 21 11 21 C11.33 20.01 11.66 19.02 12 18 C10.73355262 16.1334573 10.73355262 16.1334573 8.875 14.3125 C0 4.69050601 0 4.69050601 0 0 Z " fill="#6ADA8B" transform="translate(287,735)"/>
<path d="M0 0 C0.66 0.66 1.32 1.32 2 2 C-3.81653531 11.50096443 -9.89978327 21.26548155 -18 29 C-17.3398218 25.24412131 -15.65082768 22.51364965 -13.625 19.3125 C-12.71621094 17.85263672 -12.71621094 17.85263672 -11.7890625 16.36328125 C-10 14 -10 14 -7 13 C-6.29894157 11.34750513 -5.64199649 9.67632417 -5 8 C-3.41024612 5.28333198 -1.715494 2.63871786 0 0 Z " fill="#6ED984" transform="translate(744,669)"/>
<path d="M0 0 C0.66 0 1.32 0 2 0 C0.04893156 7.20141009 -2.54751922 13.86427582 -5.6875 20.625 C-6.31108398 21.98818359 -6.31108398 21.98818359 -6.94726562 23.37890625 C-7.95909944 25.58865825 -8.976706 27.79553786 -10 30 C-10.33 30 -10.66 30 -11 30 C-11 28.02 -11 26.04 -11 24 C-10.34 24 -9.68 24 -9 24 C-8.88785156 23.48953125 -8.77570312 22.9790625 -8.66015625 22.453125 C-7.7717405 19.1517931 -6.60252496 15.96116125 -5.4375 12.75 C-5.20353516 12.1003125 -4.96957031 11.450625 -4.72851562 10.78125 C-4.15407213 9.18687622 -3.5772707 7.59335233 -3 6 C-2.34 6 -1.68 6 -1 6 C-1.020625 5.195625 -1.04125 4.39125 -1.0625 3.5625 C-1 1 -1 1 0 0 Z " fill="#73DF84" transform="translate(764,627)"/>
<path d="M0 0 C0.33 0.99 0.66 1.98 1 3 C0.67 3.66 0.34 4.32 0 5 C-0.66 5 -1.32 5 -2 5 C-2.2475 5.94875 -2.495 6.8975 -2.75 7.875 C-4.19119381 11.47798453 -4.7103338 11.45796897 -8 13 C-8.68753301 14.65816784 -9.35561283 16.32459336 -10 18 C-10.99 18.33 -11.98 18.66 -13 19 C-12.67 19.99 -12.34 20.98 -12 22 C-13.98 22.33 -15.96 22.66 -18 23 C-13.81604471 17.23292649 -9.34356252 11.78838834 -4.69604492 6.39379883 C-2.07355664 3.38698386 -2.07355664 3.38698386 0 0 Z " fill="#86DF67" transform="translate(283,350)"/>
<path d="M0 0 C2.1875 0.125 2.1875 0.125 5 1 C6.69088222 2.97956942 8.35830472 4.97945196 10 7 C12.16531168 7.94436349 12.16531168 7.94436349 14 8 C14.33 9.32 14.66 10.64 15 12 C15.66 12 16.32 12 17 12 C17 12.66 17 13.32 17 14 C17.598125 14.268125 18.19625 14.53625 18.8125 14.8125 C20.97224808 15.98493467 22.35790256 17.19369282 24 19 C20.51367244 19 20.13587392 18.56273138 17.63671875 16.33203125 C16.99669922 15.76806641 16.35667969 15.20410156 15.69726562 14.62304688 C15.03404297 14.02556641 14.37082031 13.42808594 13.6875 12.8125 C12.37934349 11.65185075 11.0707551 10.49168808 9.76171875 9.33203125 C9.13185059 8.7695166 8.50198242 8.20700195 7.85302734 7.62744141 C6.1040751 6.09140508 4.32270851 4.60838677 2.51953125 3.13671875 C1.68808594 2.43160156 0.85664063 1.72648438 0 1 C0 0.67 0 0.34 0 0 Z " fill="#71E088" transform="translate(430,661)"/>
<path d="M0 0 C0.33 0 0.66 0 1 0 C3.33830259 28.60837458 3.33830259 28.60837458 -2.609375 37.37109375 C-3.06828125 37.90863281 -3.5271875 38.44617188 -4 39 C-3.51334431 34.13344314 -2.89849031 29.37009369 -2 24.5625 C-0.58776939 16.43690447 -0.34732444 8.22610519 0 0 Z " fill="#5FC47E" transform="translate(598,720)"/>
<path d="M0 0 C2 3 2 3 2 5 C8.6 5 15.2 5 22 5 C22 5.33 22 5.66 22 6 C13.95072024 7.29901921 6.16240568 8.33853295 -2 8 C-1.125 2.25 -1.125 2.25 0 0 Z " fill="#61CD84" transform="translate(462,760)"/>
<path d="M0 0 C0.33 0 0.66 0 1 0 C1.71178681 9.25322852 -2.94243679 19.41365518 -8 27 C-9.38050735 22.85847794 -7.79886649 20.18111378 -6.25 16.3125 C-5.98445313 15.62994141 -5.71890625 14.94738281 -5.4453125 14.24414062 C-4.90891966 12.86540271 -4.36920377 11.48795299 -3.82617188 10.11181641 C-2.51302165 6.75521197 -1.25848258 3.37743367 0 0 Z " fill="#8ADA59" transform="translate(350,227)"/>
<path d="M0 0 C1 4 1 4 -0.125 6.875 C-1.56038673 9.26731122 -2.89697705 11.15850596 -4.6875 13.25 C-7.21453331 15.6562756 -7.21453331 15.6562756 -7 18 C-8.98 18.99 -8.98 18.99 -11 20 C-11.33 19.34 -11.66 18.68 -12 18 C-8.04 12.06 -4.08 6.12 0 0 Z " fill="#87E263" transform="translate(303,322)"/>
<path d="M0 0 C0.66 0 1.32 0 2 0 C2.45439453 1.41539062 2.45439453 1.41539062 2.91796875 2.859375 C3.33992599 4.15664741 3.76319968 5.45349206 4.1875 6.75 C4.40873535 7.42651611 4.6299707 8.10303223 4.85791016 8.80004883 C6.65337937 14.18708912 8.79722198 19.35446555 11.1796875 24.51171875 C12.09034112 27.27403473 11.80897686 28.29325946 11 31 C0 5.60575898 0 5.60575898 0 0 Z " fill="#71D781" transform="translate(149,627)"/>
<path d="M0 0 C0.99 0.33 1.98 0.66 3 1 C1.27538679 2.92093521 -0.45442609 4.836722 -2.1875 6.75 C-2.67025391 7.28882813 -3.15300781 7.82765625 -3.65039062 8.3828125 C-6.56162205 11.58712091 -9.52706501 14.3841879 -13 17 C-12.30058404 13.85262818 -11.23921302 10.97411124 -10 8 C-9.01 8 -8.02 8 -7 8 C-5.09314444 6.23743069 -5.09314444 6.23743069 -3.3125 4 C-2.68988281 3.2575 -2.06726563 2.515 -1.42578125 1.75 C-0.95527344 1.1725 -0.48476563 0.595 0 0 Z " fill="#68D784" transform="translate(717,705)"/>
<path d="M0 0 C6.80551309 6.36497764 11.56356258 14.86653139 16 23 C15.34 23 14.68 23 14 23 C14 22.34 14 21.68 14 21 C13.01 20.67 12.02 20.34 11 20 C9.46484375 17.75 9.46484375 17.75 7.9375 15 C6.10856437 11.34532309 6.10856437 11.34532309 3 9 C2.67 9.66 2.34 10.32 2 11 C2.04125 10.29875 2.0825 9.5975 2.125 8.875 C1.98331668 5.61628372 1.13265314 3.0440053 0 0 Z " fill="#89D85F" transform="translate(538,275)"/>
<path d="M0 0 C1.65 0 3.3 0 5 0 C3.16379339 4.95372224 0.75338974 9.60403157 -1.625 14.3125 C-2.04523438 15.14845703 -2.46546875 15.98441406 -2.8984375 16.84570312 C-3.93047831 18.898057 -4.96438144 20.94944979 -6 23 C-7.13583456 19.28272326 -6.66670026 17.52948291 -5 14 C-4.34 14 -3.68 14 -3 14 C-3 12.35 -3 10.7 -3 9 C-2.34 8.67 -1.68 8.34 -1 8 C-0.53476937 6.10466658 -0.53476937 6.10466658 -0.375 3.9375 C-0.25125 2.638125 -0.1275 1.33875 0 0 Z " fill="#75D97A" transform="translate(284,562)"/>
<path d="M0 0 C1.125 1.75 1.125 1.75 2 4 C1.125 6.25 1.125 6.25 0 8 C-0.66 8 -1.32 8 -2 8 C-2 8.99 -2 9.98 -2 11 C-2.66 11 -3.32 11 -4 11 C-4.33 12.98 -4.66 14.96 -5 17 C-6.65 17.33 -8.3 17.66 -10 18 C-6.72591106 11.96476272 -3.43506486 5.94530457 0 0 Z " fill="#89E361" transform="translate(316,301)"/>
<path d="M0 0 C3.67670584 1.51052023 5.71874462 3.6488615 8.3125 6.625 C9.09109375 7.511875 9.8696875 8.39875 10.671875 9.3125 C11.44015625 10.199375 12.2084375 11.08625 13 12 C14.35401588 13.5417991 15.70816536 15.0834809 17.0625 16.625 C18.04241565 17.74934767 19.02189418 18.87407755 20 20 C19.34 20.66 18.68 21.32 18 22 C16.82739389 20.71372289 15.6620717 19.42080217 14.5 18.125 C13.8503125 17.40570313 13.200625 16.68640625 12.53125 15.9453125 C11 14 11 14 11 12 C10.01 11.67 9.02 11.34 8 11 C6.46484375 9.40625 6.46484375 9.40625 4.9375 7.5 C2.82278233 4.81893599 2.82278233 4.81893599 0 3 C0 2.01 0 1.02 0 0 Z " fill="#91DC5C" transform="translate(481,207)"/>
<path d="M0 0 C0.66 0.33 1.32 0.66 2 1 C0.10676602 3.23141932 -1.78947696 5.46015996 -3.6875 7.6875 C-4.21794922 8.31333984 -4.74839844 8.93917969 -5.29492188 9.58398438 C-8.39525595 13.21689118 -11.5721035 16.67385924 -15 20 C-14.40312566 16.65750371 -13.26396123 14.53563658 -11 12 C-10.34 12 -9.68 12 -9 12 C-8.34 10.35 -7.68 8.7 -7 7 C-6.34 7 -5.68 7 -5 7 C-5 6.34 -5 5.68 -5 5 C-4.34 5 -3.68 5 -3 5 C-3 4.01 -3 3.02 -3 2 C-2.01 1.34 -1.02 0.68 0 0 Z " fill="#6CD986" transform="translate(592,684)"/>
<path d="M0 0 C1.65 0 3.3 0 5 0 C5 0.99 5 1.98 5 3 C6.81600791 6.66708145 6.81600791 6.66708145 10 9 C10.625 11.5625 10.625 11.5625 11 14 C11.66 14 12.32 14 13 14 C13.33 15.65 13.66 17.3 14 19 C10.16592701 15.37703938 7.13516629 11.61509651 4.1875 7.25 C3.78080078 6.66089844 3.37410156 6.07179688 2.95507812 5.46484375 C0 1.14397321 0 1.14397321 0 0 Z " fill="#6DDD86" transform="translate(170,674)"/>
<path d="M0 0 C1.13671875 1.6875 1.13671875 1.6875 2 4 C1.20703125 6.4375 1.20703125 6.4375 -0.1875 9 C-0.63480469 9.845625 -1.08210938 10.69125 -1.54296875 11.5625 C-2.91235213 13.85337192 -4.26056037 15.97456086 -6 18 C-6.66 18 -7.32 18 -8 18 C-6.65150163 13.64029169 -4.95092154 9.68658562 -2.875 5.625 C-2.33617187 4.56539063 -1.79734375 3.50578125 -1.2421875 2.4140625 C-0.83226562 1.61742187 -0.42234375 0.82078125 0 0 Z " fill="#8AE05D" transform="translate(331,273)"/>
<path d="M0 0 C0.92277802 3.03001739 1.02219223 5.36540186 0.625 8.5 C0.53476562 9.2528125 0.44453125 10.005625 0.3515625 10.78125 C-0.21219375 14.33917835 -1.1606568 17.67409075 -2.375 21.0625 C-2.60960937 21.73410156 -2.84421875 22.40570313 -3.0859375 23.09765625 C-4.09382104 25.19526003 -5.27744134 26.45547114 -7 28 C-4.66666667 18.66666667 -2.33333333 9.33333333 0 0 Z " fill="#85CD52" transform="translate(362,185)"/>
<path d="M0 0 C3.38538336 1.09527109 5.27768419 2.24297367 8 4.625 C10.74391779 7.23026071 10.74391779 7.23026071 13.875 7.3125 C14.57625 7.209375 15.2775 7.10625 16 7 C16 8.98 16 10.96 16 13 C12.78348751 11.53461846 10.1955451 9.70270269 7.4375 7.5 C4.99531495 5.55613602 2.60022728 3.73348485 0 2 C0 1.34 0 0.68 0 0 Z " fill="#76DD82" transform="translate(375,619)"/>
<path d="M0 0 C0.33 0.66 0.66 1.32 1 2 C-1.28044903 6.13752356 -3.23946179 9.3962489 -7.84765625 10.9765625 C-10.57023911 11.44730586 -13.24470565 11.80389364 -16 12 C-12.47169239 9.13607206 -8.87015083 6.41215722 -5.1875 3.75 C-4.21167969 3.04359375 -3.23585938 2.3371875 -2.23046875 1.609375 C-1.49441406 1.07828125 -0.75835938 0.5471875 0 0 Z " fill="#72E17D" transform="translate(642,585)"/>
<path d="M0 0 C2.57198215 2.25699971 3.61623805 4.13012646 4.640625 7.37890625 C4.90617188 8.21744141 5.17171875 9.05597656 5.4453125 9.91992188 C5.71085938 10.79197266 5.97640625 11.66402344 6.25 12.5625 C6.53101563 13.43841797 6.81203125 14.31433594 7.1015625 15.21679688 C9.13020586 21.73958828 9.13020586 21.73958828 8 24 C3.43240584 17.14860875 0 8.29627305 0 0 Z " fill="#75CE72" transform="translate(761,500)"/>
<path d="M0 0 C0.33 0.99 0.66 1.98 1 3 C0.07421875 4.82421875 0.07421875 4.82421875 -1.3125 6.6875 C-1.76238281 7.31011719 -2.21226562 7.93273437 -2.67578125 8.57421875 C-3.11277344 9.04472656 -3.54976562 9.51523437 -4 10 C-4.66 10 -5.32 10 -6 10 C-6.04125 10.556875 -6.0825 11.11375 -6.125 11.6875 C-7.46930374 15.24030274 -10.00974189 16.70958953 -13 19 C-12.41501018 15.9502861 -11.57639619 14.16203455 -9.53125 11.8359375 C-8.79841797 10.98902344 -8.79841797 10.98902344 -8.05078125 10.125 C-7.53902344 9.5475 -7.02726563 8.97 -6.5 8.375 C-2.87840054 4.44774499 -2.87840054 4.44774499 0 0 Z " fill="#84E36C" transform="translate(258,380)"/>
<path d="M0 0 C1.65 0 3.3 0 5 0 C5 0.66 5 1.32 5 2 C7.97 2.495 7.97 2.495 11 3 C11.33 3.99 11.66 4.98 12 6 C12.94875 6.0825 13.8975 6.165 14.875 6.25 C15.90625 6.4975 16.9375 6.745 18 7 C19.1953125 9.046875 19.1953125 9.046875 20 11 C17.41412997 9.73412642 14.83134499 8.46254151 12.25 7.1875 C11.52039063 6.83107422 10.79078125 6.47464844 10.0390625 6.10742188 C6.44089782 4.32469483 3.10367291 2.58911661 0 0 Z " fill="#6BE391" transform="translate(248,745)"/>
<path d="M0 0 C1 3 1 3 0.29296875 5.0078125 C-0.07183594 5.70648438 -0.43664062 6.40515625 -0.8125 7.125 C-1.16957031 7.82882812 -1.52664062 8.53265625 -1.89453125 9.2578125 C-3 11 -3 11 -5 12 C-6.13350534 14.01669827 -6.13350534 14.01669827 -7 16 C-7.66 16 -8.32 16 -9 16 C-9.66 17.32 -10.32 18.64 -11 20 C-10.52709977 14.81822083 -7.82277967 11.33484148 -4.9375 7.1875 C-4.46505859 6.49462891 -3.99261719 5.80175781 -3.50585938 5.08789062 C-2.3445174 3.3869352 -1.1732322 1.69277605 0 0 Z " fill="#7FE174" transform="translate(191,465)"/>
<path d="M0 0 C1.87584679 3.3999723 2.35979619 5.47150414 1.44921875 9.33984375 C1.19785156 10.19707031 0.94648437 11.05429687 0.6875 11.9375 C0.44386719 12.79214844 0.20023438 13.64679687 -0.05078125 14.52734375 C-1.03488512 17.09087357 -2.2560304 18.8945353 -4 21 C-3.35401634 16.12689995 -2.49028264 11.36868161 -1.4375 6.5625 C-1.03337891 4.70818359 -1.03337891 4.70818359 -0.62109375 2.81640625 C-0.31365234 1.42228516 -0.31365234 1.42228516 0 0 Z " fill="#60CA83" transform="translate(593,759)"/>
<path d="M0 0 C5.33333333 5.33333333 10.66666667 10.66666667 16 16 C15.34 16.66 14.68 17.32 14 18 C14 17.34 14 16.68 14 16 C13.34 16 12.68 16 12 16 C12 15.34 12 14.68 12 14 C11.12408203 13.62488281 11.12408203 13.62488281 10.23046875 13.2421875 C7.70307949 11.83463972 6.20696046 10.30301311 4.3125 8.125 C3.71050781 7.44695312 3.10851562 6.76890625 2.48828125 6.0703125 C0.99233806 3.98934166 0.4210244 2.50369174 0 0 Z " fill="#91DE5A" transform="translate(465,189)"/>
<path d="M0 0 C2.76903152 2.51421267 4.63292444 5.34658677 6.625 8.5 C7.23601562 9.4590625 7.84703125 10.418125 8.4765625 11.40625 C10 14 10 14 11 17 C10.34 17 9.68 17 9 17 C9 16.34 9 15.68 9 15 C8.01 15 7.02 15 6 15 C0.44419134 5.77448747 0.44419134 5.77448747 0 0 Z " fill="#6AE088" transform="translate(276,718)"/>
<path d="M0 0 C0.66 0 1.32 0 2 0 C2 0.99 2 1.98 2 3 C2.99 3.33 3.98 3.66 5 4 C4.67 4.66 4.34 5.32 4 6 C4.66 6 5.32 6 6 6 C8.61896089 8.82847776 9.4739075 11.21213403 10 15 C9.01 15.495 9.01 15.495 8 16 C6.66141476 13.71125827 5.32898986 11.41930344 4 9.125 C3.6184375 8.47402344 3.236875 7.82304688 2.84375 7.15234375 C0 2.2265625 0 2.2265625 0 0 Z " fill="#6EDB82" transform="translate(161,658)"/>
<path d="M0 0 C3.40208828 3.40208828 3.05433827 7.77178592 3.0625 12.375 C3.041875 13.57125 3.02125 14.7675 3 16 C2.34 16.33 1.68 16.66 1 17 C-0.53266582 13.93466836 -0.10276471 10.73245728 -0.0625 7.375 C-0.05798828 6.66859375 -0.05347656 5.9621875 -0.04882812 5.234375 C-0.03703875 3.48954725 -0.01910324 1.744763 0 0 Z " fill="#72D473" transform="translate(773,542)"/>
<path d="M0 0 C0.66 0.66 1.32 1.32 2 2 C1.61295782 6.96997341 0.40229071 12.61935224 -2 17 C-2.99 17.33 -3.98 17.66 -5 18 C-3.36959185 11.98922864 -1.72852643 5.98336072 0 0 Z " fill="#65D385" transform="translate(469,738)"/>
<path d="M0 0 C1.07876911 3.23630734 0.92145203 4.17828157 0.125 7.375 C-0.06835938 8.17035156 -0.26171875 8.96570313 -0.4609375 9.78515625 C-0.63882812 10.51605469 -0.81671875 11.24695313 -1 12 C-1.165 12.928125 -1.33 13.85625 -1.5 14.8125 C-2.02591605 17.11338274 -2.85709569 18.94277224 -4 21 C-5.51739285 17.9652143 -4.70956206 15.51236188 -4.25 12.1875 C-4.09015625 10.96417969 -3.9303125 9.74085938 -3.765625 8.48046875 C-3.01299321 5.05906609 -1.9810477 2.85728033 0 0 Z " fill="#92E154" transform="translate(366,175)"/>
<path d="M0 0 C0.99 0.33 1.98 0.66 3 1 C5.31383471 5.91881418 5.24192664 10.5683296 5.125 15.875 C5.11597656 16.65875 5.10695313 17.4425 5.09765625 18.25 C5.07428063 20.16680055 5.03841653 22.08344191 5 24 C4.67 24 4.34 24 4 24 C3.96261719 23.10539063 3.92523438 22.21078125 3.88671875 21.2890625 C3.47812683 13.77417573 2.5931083 7.07804405 0 0 Z " fill="#63CD7D" transform="translate(468,700)"/>
<path d="M0 0 C0.33 1.32 0.66 2.64 1 4 C1.66 4 2.32 4 3 4 C4.25664978 6.90600261 5 8.79604584 5 12 C5.66 12 6.32 12 7 12 C9.125 16.625 9.125 16.625 8 20 C6.68200981 17.58618654 5.37049082 15.16922404 4.0625 12.75 C3.68931641 12.06808594 3.31613281 11.38617187 2.93164062 10.68359375 C2.57392578 10.01972656 2.21621094 9.35585938 1.84765625 8.671875 C1.51773682 8.0644043 1.18781738 7.45693359 0.84790039 6.83105469 C-0.05050548 4.89093259 -0.63007739 3.10567015 -1 1 C-0.67 0.67 -0.34 0.34 0 0 Z " fill="#77DA7D" transform="translate(344,574)"/>
<path d="M0 0 C4.11018964 3.35973367 7.94640442 6.60282237 11 11 C11 11.66 11 12.32 11 13 C10.34 13 9.68 13 9 13 C8.67 13.66 8.34 14.32 8 15 C7.896875 14.21625 7.79375 13.4325 7.6875 12.625 C7.22404978 9.66954819 7.22404978 9.66954819 4 8 C4 7.01 4 6.02 4 5 C3.34 5 2.68 5 2 5 C2 4.34 2 3.68 2 3 C1.34 3 0.68 3 0 3 C0 2.01 0 1.02 0 0 Z " fill="#82E06E" transform="translate(713,420)"/>
<path d="M0 0 C3.29385599 3.12765224 6.02196195 6.49653109 8.75 10.125 C9.36681641 10.93130859 9.36681641 10.93130859 9.99609375 11.75390625 C13 15.755788 13 15.755788 13 18 C12.34 18 11.68 18 11 18 C9.62340232 16.27852222 8.32227237 14.49622345 7.0625 12.6875 C4.41856988 8.8117815 4.41856988 8.8117815 1.24609375 5.39453125 C0 4 0 4 0 0 Z " fill="#8CD860" transform="translate(524,256)"/>
<path d="M0 0 C2.9375 -0.4375 2.9375 -0.4375 6 0 C7.875 2 7.875 2 9 4 C6.69 3.67 4.38 3.34 2 3 C1.01 4.98 0.02 6.96 -1 9 C-1.66 9 -2.32 9 -3 9 C-2.5020163 5.26512223 -2.12508244 3.18762365 0 0 Z " fill="#94D354" transform="translate(376,113)"/>
<path d="M0 0 C6.6473857 0.85222894 13.92264449 2.36415367 19 7 C12.0886636 6.52877252 6.27795839 3.79363994 0 1 C0 0.67 0 0.34 0 0 Z " fill="#60C781" transform="translate(293,766)"/>
<path d="M0 0 C1.0625 1.8125 1.0625 1.8125 2 4 C1.67 4.99 1.34 5.98 1 7 C-2.0625 8.1875 -2.0625 8.1875 -5 9 C-5.33 8.01 -5.66 7.02 -6 6 C-4.02 4.02 -2.04 2.04 0 0 Z " fill="#141D14" transform="translate(717,709)"/>
<path d="M0 0 C0.99 0.33 1.98 0.66 3 1 C-0.96 4.3 -4.92 7.6 -9 11 C-9.33 10.34 -9.66 9.68 -10 9 C-3.73362445 2.55458515 -3.73362445 2.55458515 0 0 Z " fill="#6CD987" transform="translate(701,722)"/>
<path d="M0 0 C0.99 0 1.98 0 3 0 C7 4.34285714 7 4.34285714 7 7 C7.639375 7.2475 8.27875 7.495 8.9375 7.75 C11 9 11 9 11.62890625 11.078125 C11.81259766 12.02945313 11.81259766 12.02945313 12 13 C7.07091854 9.12207712 3.4576289 5.23883167 0 0 Z " fill="#74D97F" transform="translate(360,604)"/>
<path d="M0 0 C0 0.99 0 1.98 0 3 C-1.90881434 4.03544174 -3.82739204 5.05290085 -5.75 6.0625 C-6.81734375 6.63097656 -7.8846875 7.19945312 -8.984375 7.78515625 C-12 9 -12 9 -16 8 C-10.72 5.36 -5.44 2.72 0 0 Z " fill="#73D57D" transform="translate(625,597)"/>
<path d="M0 0 C0.33 0 0.66 0 1 0 C1.34615998 5.65394631 0.43425238 9.03006806 -2 14 C-2.66 14 -3.32 14 -4 14 C-3.00956295 9.16371695 -2.04301154 4.52381127 0 0 Z " fill="#6ECA6E" transform="translate(156,526)"/>
<path d="M0 0 C2.86724686 0.57344937 3.8614515 0.8614515 6 3 C7.31747324 3.69748583 8.64914193 4.36959957 10 5 C9.67 6.32 9.34 7.64 9 9 C7.87105124 8.06725891 6.74699124 7.12859878 5.625 6.1875 C4.99851563 5.66542969 4.37203125 5.14335938 3.7265625 4.60546875 C2 3 2 3 0 0 Z " fill="#6ADB87" transform="translate(194,704)"/>
<path d="M0 0 C0.33 0.99 0.66 1.98 1 3 C1.66 3.33 2.32 3.66 3 4 C1.02 6.31 -0.96 8.62 -3 11 C-3 10.01 -3 9.02 -3 8 C-3.061875 7.175 -3.12375 6.35 -3.1875 5.5 C-3 3 -3 3 -1.5 1.1875 C-1.005 0.795625 -0.51 0.40375 0 0 Z " fill="#161F13" transform="translate(269,361)"/>
<path d="M0 0 C0.33 0.99 0.66 1.98 1 3 C-0.375 4.5 -0.375 4.5 -2 6 C-2.66 6 -3.32 6 -4 6 C-4.33 6.99 -4.66 7.98 -5 9 C-7.5625 10.6875 -7.5625 10.6875 -10 12 C-8.52278578 8.54798361 -6.56205999 6.35038064 -3.875 3.75 C-3.15054688 3.04359375 -2.42609375 2.3371875 -1.6796875 1.609375 C-1.12539063 1.07828125 -0.57109375 0.5471875 0 0 Z " fill="#0E1B0D" transform="translate(554,731)"/>
<path d="M0 0 C0.82638376 2.89234315 1 4.88742431 1 8 C-0.875 10.25 -0.875 10.25 -3 12 C-3.66 12 -4.32 12 -5 12 C-4.42365861 7.24518354 -2.44931479 4.02951788 0 0 Z " fill="#7BE174" transform="translate(174,491)"/>
<path d="M0 0 C1 3 1 3 -0.4375 6.1875 C-1.2109375 7.5796875 -1.2109375 7.5796875 -2 9 C-2.66 9 -3.32 9 -4 9 C-4.99 10.485 -4.99 10.485 -6 12 C-6.66 11.67 -7.32 11.34 -8 11 C-5.36 7.37 -2.72 3.74 0 0 Z " fill="#7EDA6E" transform="translate(213,435)"/>
<path d="M0 0 C0.33 0.66 0.66 1.32 1 2 C-0.21484375 4.8203125 -0.21484375 4.8203125 -1.9375 8.125 C-2.50339844 9.22070312 -3.06929688 10.31640625 -3.65234375 11.4453125 C-4.09707031 12.28835938 -4.54179687 13.13140625 -5 14 C-5.66 12.68 -6.32 11.36 -7 10 C-6.360625 9.443125 -5.72125 8.88625 -5.0625 8.3125 C-2.77607192 5.74892913 -2.53620407 4.30659175 -2 1 C-1.34 0.67 -0.68 0.34 0 0 Z " fill="#11210A" transform="translate(335,262)"/>
<path d="M0 0 C0.66 0.33 1.32 0.66 2 1 C1.34 3.31 0.68 5.62 0 8 C-0.99 8 -1.98 8 -3 8 C-3.99 9.485 -3.99 9.485 -5 11 C-5.66 10.67 -6.32 10.34 -7 10 C-3.535 5.05 -3.535 5.05 0 0 Z " fill="#122313" transform="translate(742,676)"/>
<path d="M0 0 C0.33 0.99 0.66 1.98 1 3 C-0.43359375 5.48046875 -0.43359375 5.48046875 -2.4375 8.1875 C-3.09621094 9.08855469 -3.75492187 9.98960937 -4.43359375 10.91796875 C-5.20896484 11.94857422 -5.20896484 11.94857422 -6 13 C-6.578125 11.08984375 -6.578125 11.08984375 -7 9 C-5.75 7.5625 -5.75 7.5625 -4 6 C-2.97695052 4.34738161 -1.97383946 2.68208635 -1 1 C-0.67 0.67 -0.34 0.34 0 0 Z " fill="#78DC7C" transform="translate(296,548)"/>
<path d="M0 0 C2.99220268 1.36370299 5.29026529 2.94908083 7.75 5.125 C8.67039062 5.93324219 8.67039062 5.93324219 9.609375 6.7578125 C10.06828125 7.16773438 10.5271875 7.57765625 11 8 C10.01 8.33 9.02 8.66 8 9 C7.278125 8.175 6.55625 7.35 5.8125 6.5 C3.27082634 3.75592194 3.27082634 3.75592194 0.1875 3.6875 C-0.8953125 3.8421875 -0.8953125 3.8421875 -2 4 C-1.34 2.68 -0.68 1.36 0 0 Z " fill="#67E690" transform="translate(307,760)"/>
<path d="M0 0 C0.66 0 1.32 0 2 0 C1.53328373 5.41390868 0.75702189 9.20517932 -2 14 C-3.21065165 10.36804504 -2.62784815 8.93468371 -1.5625 5.3125 C-1.27503906 4.31863281 -0.98757813 3.32476563 -0.69140625 2.30078125 C-0.46324219 1.54152344 -0.23507812 0.78226563 0 0 Z " fill="#76DD7B" transform="translate(603,548)"/>
<path d="M0 0 C1.65 0 3.3 0 5 0 C2.63448058 2.73902249 0.45142779 3.93170092 -3 5 C-5.8125 5.125 -5.8125 5.125 -8 5 C-7.01 4.67 -6.02 4.34 -5 4 C-4.67 3.34 -4.34 2.68 -4 2 C-2.68 2 -1.36 2 0 2 C0 1.34 0 0.68 0 0 Z " fill="#6CE392" transform="translate(637,763)"/>
<path d="M0 0 C2.00720923 0.28674418 4.0085944 0.61866701 6 1 C5.1875 2.9375 5.1875 2.9375 4 5 C3.01 5.33 2.02 5.66 1 6 C0.34 4.35 -0.32 2.7 -1 1 C-0.67 0.67 -0.34 0.34 0 0 Z " fill="#66EC8C" transform="translate(674,739)"/>
<path d="M0 0 C0.66 0 1.32 0 2 0 C0.58707905 4.8274799 -1.42974154 8.7162359 -4 13 C-5.04449911 9.86650268 -4.93423645 9.01031744 -4 6 C-3.34 6 -2.68 6 -2 6 C-1.7834375 5.071875 -1.7834375 5.071875 -1.5625 4.125 C-1 2 -1 2 0 0 Z " fill="#6ED27F" transform="translate(751,657)"/>
<path d="M0 0 C0.33 1.32 0.66 2.64 1 4 C3.31 4.33 5.62 4.66 8 5 C4.5980513 7.09350689 1.94727588 7.17942163 -2 7 C-1.125 1.125 -1.125 1.125 0 0 Z " fill="#0C270E" transform="translate(572,610)"/>
<path d="M0 0 C2.96052484 3.36423277 3.92289822 6.69159287 5 11 C4.01 11.495 4.01 11.495 3 12 C3 11.01 3 10.02 3 9 C2.34 9 1.68 9 1 9 C0.67 6.03 0.34 3.06 0 0 Z " fill="#7BD973" transform="translate(756,487)"/>
<path d="M0 0 C3.95677402 1.67401978 6.84464213 4.13149285 10 7 C10 7.66 10 8.32 10 9 C7.125 8.8125 7.125 8.8125 4 8 C2.75 5.5 2.75 5.5 2 3 C1.34 2.67 0.68 2.34 0 2 C0 1.34 0 0.68 0 0 Z " fill="#9AEA58" transform="translate(445,171)"/>
<path d="M0 0 C-0.34879632 3.25543229 -1.02133261 4.01873107 -3.5625 6.25 C-4.366875 6.8275 -5.17125 7.405 -6 8 C-6 4.87099787 -5.57548683 3.62581138 -4 1 C-2 0 -2 0 0 0 Z " fill="#64DB85" transform="translate(558,725)"/>
<path d="M0 0 C0.66 0 1.32 0 2 0 C2 0.66 2 1.32 2 2 C2.66 2 3.32 2 4 2 C4.0825 2.61875 4.165 3.2375 4.25 3.875 C4.81258459 6.18437567 4.81258459 6.18437567 7.0625 7.25 C7.701875 7.4975 8.34125 7.745 9 8 C8.67 8.99 8.34 9.98 8 11 C6.66072279 9.54712339 5.32873153 8.08752741 4 6.625 C3.2575 5.81289063 2.515 5.00078125 1.75 4.1640625 C0 2 0 2 0 0 Z " fill="#6FDC86" transform="translate(185,693)"/>
<path d="M0 0 C0.33 0 0.66 0 1 0 C0.67 2.31 0.34 4.62 0 7 C-0.99 7.33 -1.98 7.66 -3 8 C-3.33 8.99 -3.66 9.98 -4 11 C-4.33 10.34 -4.66 9.68 -5 9 C-4.00390625 6.8359375 -4.00390625 6.8359375 -2.5625 4.375 C-2.08941406 3.55773437 -1.61632812 2.74046875 -1.12890625 1.8984375 C-0.75636719 1.27195312 -0.38382813 0.64546875 0 0 Z " fill="#7CE37B" transform="translate(684,536)"/>
<path d="M0 0 C0.66 0.99 1.32 1.98 2 3 C0.625 6.6875 0.625 6.6875 -1 10 C-1.99 10 -2.98 10 -4 10 C-2.99806563 6.20696275 -2.18975773 3.28463659 0 0 Z " fill="#77D771" transform="translate(165,507)"/>
<path d="M0 0 C0.99 0.66 1.98 1.32 3 2 C1.66666667 4.66666667 0.33333333 7.33333333 -1 10 C-1.66 9.67 -2.32 9.34 -3 9 C-2.01 6.03 -1.02 3.06 0 0 Z " fill="#88DC58" transform="translate(340,253)"/>
<path d="M0 0 C1.1875 1.5625 1.1875 1.5625 2 4 C-0.24489796 10.62244898 -0.24489796 10.62244898 -3 12 C-2.69230293 10.18667846 -2.37870936 8.37435655 -2.0625 6.5625 C-1.80146484 5.04849609 -1.80146484 5.04849609 -1.53515625 3.50390625 C-1 1 -1 1 0 0 Z " fill="#96F258" transform="translate(356,212)"/>
<path d="M0 0 C0.33 0.99 0.66 1.98 1 3 C-2.22515763 4.73662334 -5.51329166 5.8905928 -9 7 C-9 6.34 -9 5.68 -9 5 C-6.03 3.35 -3.06 1.7 0 0 Z " fill="#112315" transform="translate(666,751)"/>
<path d="M0 0 C0.66 0.66 1.32 1.32 2 2 C-0.97 6.95 -0.97 6.95 -4 12 C-5 8 -5 8 -4.00390625 5.859375 C-3.52824219 5.16328125 -3.05257812 4.4671875 -2.5625 3.75 C-2.08941406 3.04359375 -1.61632812 2.3371875 -1.12890625 1.609375 C-0.75636719 1.07828125 -0.38382813 0.5471875 0 0 Z " fill="#6CD380" transform="translate(744,669)"/>
<path d="M0 0 C2.15377564 2.62198774 3.40072174 4.64404172 4 8 C2.35 7.67 0.7 7.34 -1 7 C-0.67 4.69 -0.34 2.38 0 0 Z " fill="#88E765" transform="translate(579,342)"/>
<path d="M0 0 C0.66 1.32 1.32 2.64 2 4 C1.01 4.99 0.02 5.98 -1 7 C-1.99 5.68 -2.98 4.36 -4 3 C-3.34 3 -2.68 3 -2 3 C-2 2.34 -2 1.68 -2 1 C-1.34 0.67 -0.68 0.34 0 0 Z " fill="#60F792" transform="translate(300,753)"/>
<path d="M0 0 C0.99 0 1.98 0 3 0 C5.25 2.8125 5.25 2.8125 7 6 C6.67 6.99 6.34 7.98 6 9 C4.99406757 7.8803014 3.9954151 6.7540588 3 5.625 C2.443125 4.99851562 1.88625 4.37203125 1.3125 3.7265625 C0 2 0 2 0 0 Z " fill="#71E388" transform="translate(455,681)"/>
<path d="M0 0 C2.99220268 1.36370299 5.29026529 2.94908083 7.75 5.125 C8.67039062 5.93324219 8.67039062 5.93324219 9.609375 6.7578125 C10.06828125 7.16773438 10.5271875 7.57765625 11 8 C10.34 8.66 9.68 9.32 9 10 C7.49702124 8.52386015 5.99768715 7.04400843 4.5 5.5625 C3.6646875 4.73878906 2.829375 3.91507813 1.96875 3.06640625 C0 1 0 1 0 0 Z " fill="#1A320C" transform="translate(441,165)"/>
<path d="M0 0 C2.61500768 2.36595933 4.38999603 4.86049226 6 8 C5.67 8.66 5.34 9.32 5 10 C1.32769295 6.92000054 0.43197635 4.7517398 0 0 Z " fill="#66CE82" transform="translate(276,718)"/>
<path d="M0 0 C0.66 0 1.32 0 2 0 C1.39301257 4.12751449 -0.03810791 7.3321148 -2 11 C-3.13643966 7.59068103 -2.86747764 6.99664544 -1.5625 3.8125 C-1.13130859 2.73935547 -1.13130859 2.73935547 -0.69140625 1.64453125 C-0.46324219 1.10183594 -0.23507812 0.55914063 0 0 Z " fill="#73D278" transform="translate(597,564)"/>
<path d="M0 0 C1.39195915 4.17587745 -0.17676781 6.13474776 -2 10 C-3.10348268 6.68955197 -2.99444068 4.34493684 -2 1 C-1.34 0.67 -0.68 0.34 0 0 Z " fill="#77E785" transform="translate(571,608)"/>
<path d="M0 0 C0 3.15081975 -0.27898465 4.41847698 -2 7 C-4.125 7.75 -4.125 7.75 -6 8 C-4.26440562 4.942048 -2.61527381 2.36620011 0 0 Z " fill="#0F200F" transform="translate(323,516)"/>
<path d="M0 0 C0.33 0.99 0.66 1.98 1 3 C-0.25 5.1875 -0.25 5.1875 -2 7 C-2.99 7 -3.98 7 -5 7 C-4.34 5.68 -3.68 4.36 -3 3 C-2.34 3 -1.68 3 -1 3 C-0.67 2.01 -0.34 1.02 0 0 Z " fill="#6DE48B" transform="translate(738,679)"/>
<path d="M0 0 C2.88437779 1.29299694 4.87219421 2.65941363 7 5 C6.67 5.66 6.34 6.32 6 7 C3.95880212 5.38405168 1.95927063 3.7143618 0 2 C0 1.34 0 0.68 0 0 Z " fill="#71DC84" transform="translate(421,653)"/>
<path d="M0 0 C1.32 0.33 2.64 0.66 4 1 C4 2.65 4 4.3 4 6 C2.68 5.34 1.36 4.68 0 4 C0 2.68 0 1.36 0 0 Z " fill="#70EA7F" transform="translate(387,626)"/>
<path d="M0 0 C1.5 1 1.5 1 3 3 C3.27345479 5.71846235 3.13491285 8.25677199 3 11 C0.43383368 7.15075052 0.44902324 4.5650696 0 0 Z " fill="#78E07E" transform="translate(340,563)"/>
<path d="M0 0 C0.66 0 1.32 0 2 0 C3.6875 2.3125 3.6875 2.3125 5 5 C4.67 5.99 4.34 6.98 4 8 C1.44971017 6.72485508 1.06918289 5.59658703 0 3 C0 2.01 0 1.02 0 0 Z " fill="#89DF63" transform="translate(565,318)"/>
<path d="M0 0 C0.66 0 1.32 0 2 0 C2.1875 2.8125 2.1875 2.8125 2 6 C1.01 6.99 0.02 7.98 -1 9 C-0.67 6.03 -0.34 3.06 0 0 Z " fill="#73C971" transform="translate(689,516)"/>
<path d="M0 0 C2.12046792 3.53411321 2.53199289 6.94393835 3 11 C1.5 10 1.5 10 0 8 C-0.27345479 5.28153765 -0.13491285 2.74322801 0 0 Z " fill="#76C862" transform="translate(605,402)"/>
<path d="M0 0 C0.33 0 0.66 0 1 0 C2.35384615 6.27692308 2.35384615 6.27692308 0.5625 9.9375 C-0.2109375 10.9584375 -0.2109375 10.9584375 -1 12 C-2.3609623 9.2780754 -1.70366248 7.8168043 -1.0625 4.875 C-0.86785156 3.96492187 -0.67320312 3.05484375 -0.47265625 2.1171875 C-0.31667969 1.41851562 -0.16070312 0.71984375 0 0 Z " fill="#9BF658" transform="translate(363,184)"/>
</svg>
